<svg id="Capa_1" data-name="Capa 1" xmlns="http://www.w3.org/2000/svg" viewBox="0 0 512 336.64"><defs><style>.cls-1{fill:#ffe55a;}.cls-2{fill:#98db7c;}.cls-3{fill:#82d361;}.cls-4{fill:#ffd91d;}.cls-5{fill:#5a5a5a;}</style></defs><path class="cls-1" d="M138.68,240.71c9.23-8.4,20.22-20.57,32.92-33.25-4.59-8-9.28-14.78-13.57-18.43-10.68-9.07-27.16-12-37.82-12.86a9.93,9.93,0,0,0-10.75,10c.15,10.69,1.87,27.34,10.18,38.63,3.57,4.85,10.64,10.39,19,15.89Z" transform="translate(0 -87.68)"/><path class="cls-1" d="M189.62,190.51c11.14-9.76,23.33-18.9,36.53-25.87-3.26-10.3-7-19.32-11-24.33-8.73-11-24.34-17-34.63-19.9a9.92,9.92,0,0,0-12.48,7.76c-1.91,10.52-3.43,27.18,2.55,39.86,3,6.28,10.3,14.36,19,22.48Z" transform="translate(0 -87.68)"/><path class="cls-1" d="M274.71,151.68a106.11,106.11,0,0,1,23.94,2.7c2.94-11.16,4.8-21.53,4-28.25C301,112.21,291,98.86,283.77,90.94a9.91,9.91,0,0,0-14.69,0c-7.19,7.92-17.28,21.27-18.9,35.19-.77,6.65,1,16.88,3.93,27.9a92.86,92.86,0,0,1,20.6-2.35Z" transform="translate(0 -87.68)"/><path class="cls-1" d="M359.8,190.51c8.69-8.13,16-16.2,19-22.48,6-12.68,4.46-29.34,2.55-39.86a9.92,9.92,0,0,0-12.48-7.76c-10.28,2.93-25.9,8.93-34.63,19.9-3.84,4.82-7.43,13.38-10.6,23.21a142.41,142.41,0,0,1,36.17,27Z" transform="translate(0 -87.68)"/><path class="cls-1" d="M403.07,251.51c11.38-5.6,21.53-11.62,26.41-17.1,9.32-10.46,12.59-26.88,13.73-37.51a9.92,9.92,0,0,0-9.77-11c-10.69-.1-27.37,1.24-38.85,9.28-4.74,3.33-10.19,9.86-15.66,17.7a304.65,304.65,0,0,1,24.14,38.61Z" transform="translate(0 -87.68)"/><path class="cls-1" d="M443.2,318.42c10.17-4.59,19.15-9.54,23.67-14.22,9.07-9.4,12.73-24.56,14.2-34.42a9.25,9.25,0,0,0-8.68-10.59c-10-.5-25.54.12-36.53,7.17-4.92,3.16-10.76,9.8-16.61,17.7,6.47,12.57,13.93,24.77,23.95,34.36Z" transform="translate(0 -87.68)"/><path class="cls-2" d="M412.78,270.89c-17.84-37.48-60.5-119.21-138.07-119.21S144.39,252,119.57,252s-34.13-33.57-64-32.79S0,243.71,0,276.29c0,20,26.43,27.87,64.21,25.81,34.06-1.86,75.63,25.36,75.63,55.06v43.35a23.81,23.81,0,0,0,47.62,0V368.65H302.84c4.32,5.08,10.41,9.38,18.92,12.13V400c0,13.35,10.93,24.6,24.28,24.34a23.81,23.81,0,0,0,23.35-23.8V382.85l20.12-27.94c71.79,37.7,105.76,16.25,120.44-2.29a9.36,9.36,0,0,0-8.08-15.15c-53.6,4.26-72.93-32.65-89.09-66.58Z" transform="translate(0 -87.68)"/><path class="cls-3" d="M168.89,387.24v36.49a23.8,23.8,0,0,0,18.57-23.09v-32a18.57,18.57,0,0,0-18.57,18.57Z" transform="translate(0 -87.68)"/><path class="cls-3" d="M350.82,401.34v22.4a23.83,23.83,0,0,0,18.57-23.23V382.77A18.56,18.56,0,0,0,350.82,401.34Z" transform="translate(0 -87.68)"/><path class="cls-3" d="M256.13,166.46c77.57,0,120.23,81.73,138.07,119.21,17.69,37.15,51.17,77.16,117.49,63.49a9.37,9.37,0,0,0-9.82-11.69c-53.6,4.26-72.93-32.65-89.09-66.58-17.84-37.48-60.5-119.21-138.07-119.21-33,0-61.46,18.12-85.23,38.95,19.62-13.93,41.86-24.17,66.65-24.17Z" transform="translate(0 -87.68)"/><path class="cls-3" d="M37,233.94c29.85-.77,39.16,32.79,64,32.79,6.35,0,14.52-6.56,24.47-16.32a14.11,14.11,0,0,1-5.89,1.54c-24.82,0-34.13-33.57-64-32.79A57.35,57.35,0,0,0,12.8,240a57.61,57.61,0,0,1,24.21-6Z" transform="translate(0 -87.68)"/><path class="cls-4" d="M443.2,318.42a127.74,127.74,0,0,0,17.31-9.17c-9.25-12.57-16.4-27-23.07-41.05-.34-.71-.68-1.43-1-2.16l-.54.32c-4.92,3.16-10.76,9.8-16.61,17.7,6.47,12.57,13.93,24.77,23.95,34.36Z" transform="translate(0 -87.68)"/><path class="cls-4" d="M423.06,240a331.73,331.73,0,0,0-29-44.38c-4.61,3.42-9.86,9.75-15.13,17.3a304.65,304.65,0,0,1,24.14,38.61,143.72,143.72,0,0,0,20-11.53Z" transform="translate(0 -87.68)"/><path class="cls-4" d="M375,174.1c-12.44-12.35-26.63-23.25-42.69-31.09-3.13,5-6.07,12.31-8.71,20.51a142.41,142.41,0,0,1,36.17,27A128,128,0,0,0,375,174.1Z" transform="translate(0 -87.68)"/><path class="cls-4" d="M277.65,130.24a107.86,107.86,0,0,0-27.43,3.61A127.43,127.43,0,0,0,254.11,154a92.27,92.27,0,0,1,20.6-2.36,106.11,106.11,0,0,1,23.94,2.7,123.73,123.73,0,0,0,4.06-21.58,123.35,123.35,0,0,0-25.06-2.56Z" transform="translate(0 -87.68)"/><path class="cls-4" d="M189.62,190.51c11.14-9.76,23.33-18.9,36.53-25.87a121,121,0,0,0-7.09-18.12c-15.27,8.39-29.35,19.26-42.21,30.72A148.88,148.88,0,0,0,189.62,190.51Z" transform="translate(0 -87.68)"/><path class="cls-4" d="M124.08,229.67a110.44,110.44,0,0,0,14.6,11c9.23-8.4,20.22-20.57,32.92-33.24a94.41,94.41,0,0,0-10.51-15.4C147,206,134.62,219.57,124.08,229.67Z" transform="translate(0 -87.68)"/><path class="cls-5" d="M37.55,257.74c0,9.94,5.89,17.43,13.7,17.43S65,267.68,65,257.74s-5.89-17.42-13.7-17.42S37.55,247.81,37.55,257.74Z" transform="translate(0 -87.68)"/></svg>